HIERARCHY
ROOT hip
{
  OFFSET 0 0 0
  CHANNELS 6 Xposition Yposition Zposition Zrotation Yrotation Xrotation
  JOINT abdomen
  {
    OFFSET 0 20.6881 -0.73152
    CHANNELS 3 Zrotation Xrotation Yrotation
    JOINT chest
    {
      OFFSET 0 11.7043 -0.48768
      CHANNELS 3 Zrotation Xrotation Yrotation
      JOINT neck
      {
        OFFSET 0 22.1894 -2.19456
        CHANNELS 3 Zrotation Xrotation Yrotation
        JOINT head
        {
          OFFSET -0.24384 7.07133 1.2192
          CHANNELS 3 Zrotation Xrotation Yrotation
          JOINT leftEye
          {
            OFFSET 4.14528 8.04674 8.04672
            CHANNELS 3 Zrotation Xrotation Yrotation
            End Site
            {
              OFFSET 1 0 0
            }
          }
          JOINT rightEye
          {
            OFFSET -3.6576 8.04674 8.04672
            CHANNELS 3 Zrotation Xrotation Yrotation
            End Site
            {
              OFFSET 1 0 0
            }
          }
        }
      }
      JOINT rCollar
      {
        OFFSET -2.68224 19.2634 -4.8768
        CHANNELS 3 Zrotation Xrotation Yrotation
        JOINT rShldr
        {
          OFFSET -8.77824 -1.95073 1.46304
          CHANNELS 3 Zrotation Xrotation Yrotation
          JOINT rForeArm
          {
            OFFSET -28.1742 -1.7115 0.48768
            CHANNELS 3 Zrotation Xrotation Yrotation
            JOINT rHand
            {
              OFFSET -22.5879 0.773209 7.07136
              CHANNELS 3 Zrotation Xrotation Yrotation
              JOINT rThumb1
              {
                OFFSET -1.2192 -0.487915 3.41376
                CHANNELS 3 Zrotation Xrotation Yrotation
                JOINT rThumb2
                {
                  OFFSET -3.37035 -0.52449 3.41376
                  CHANNELS 3 Zrotation Xrotation Yrotation
                  End Site
                  {
                    OFFSET -1.78271 -1.18214 1.43049
                  }
                }
              }
              JOINT rIndex1
              {
                OFFSET -7.75947 0.938293 5.60832
                CHANNELS 3 Zrotation Xrotation Yrotation
                JOINT rIndex2
                {
                  OFFSET -2.54057 -0.884171 1.56538
                  CHANNELS 3 Zrotation Xrotation Yrotation
                  End Site
                  {
                    OFFSET -1.62519 -0.234802 1.16502
                  }
                }
              }
              JOINT rMid1
              {
                OFFSET -8.24714 1.18213 3.41376
                CHANNELS 3 Zrotation Xrotation Yrotation
                JOINT rMid2
                {
                  OFFSET -3.10165 -0.590103 1.0647
                  CHANNELS 3 Zrotation Xrotation Yrotation
                  End Site
                  {
                    OFFSET -2.48547 -0.328903 0.83742
                  }
                }
              }
              JOINT rRing1
              {
                OFFSET -8.82822 0.546677 1.51678
                CHANNELS 3 Zrotation Xrotation Yrotation
                JOINT rRing2
                {
                  OFFSET -2.60934 -0.819778 -0.0198488
                  CHANNELS 3 Zrotation Xrotation Yrotation
                  End Site
                  {
                    OFFSET -2.33842 -0.294052 0.168128
                  }
                }
              }
              JOINT rPinky1
              {
                OFFSET -8.27202 -0.0477905 -0.4584
                CHANNELS 3 Zrotation Xrotation Yrotation
                JOINT rPinky2
                {
                  OFFSET -1.82734 -0.647385 -0.700984
                  CHANNELS 3 Zrotation Xrotation Yrotation
                  End Site
                  {
                    OFFSET -1.69225 -0.51767 -0.607171
                  }
                }
              }
            }
          }
        }
      }
      JOINT lCollar
      {
        OFFSET 2.68224 19.2634 -4.8768
        CHANNELS 3 Zrotation Xrotation Yrotation
        JOINT lShldr
        {
          OFFSET 8.77824 -1.95073 1.46304
          CHANNELS 3 Zrotation Xrotation Yrotation
          JOINT lForeArm
          {
            OFFSET 28.1742 -1.7115 0.48768
            CHANNELS 3 Zrotation Xrotation Yrotation
            JOINT lHand
            {
              OFFSET 22.5879 0.773209 7.07136
              CHANNELS 3 Zrotation Xrotation Yrotation
              JOINT lThumb1
              {
                OFFSET 1.2192 -0.487915 3.41376
                CHANNELS 3 Zrotation Xrotation Yrotation
                JOINT lThumb2
                {
                  OFFSET 3.37035 -0.52449 3.41376
                  CHANNELS 3 Zrotation Xrotation Yrotation
                  End Site
                  {
                    OFFSET 1.78271 -1.18214 1.43049
                  }
                }
              }
              JOINT lIndex1
              {
                OFFSET 7.75947 0.938293 5.60832
                CHANNELS 3 Zrotation Xrotation Yrotation
                JOINT lIndex2
                {
                  OFFSET 2.54057 -0.884171 1.56538
                  CHANNELS 3 Zrotation Xrotation Yrotation
                  End Site
                  {
                    OFFSET 1.62519 -0.234802 1.16502
                  }
                }
              }
              JOINT lMid1
              {
                OFFSET 8.24714 1.18213 3.41376
                CHANNELS 3 Zrotation Xrotation Yrotation
                JOINT lMid2
                {
                  OFFSET 3.10165 -0.590103 1.0647
                  CHANNELS 3 Zrotation Xrotation Yrotation
                  End Site
                  {
                    OFFSET 2.48547 -0.328903 0.83742
                  }
                }
              }
              JOINT lRing1
              {
                OFFSET 8.82822 0.546677 1.51678
                CHANNELS 3 Zrotation Xrotation Yrotation
                JOINT lRing2
                {
                  OFFSET 2.60934 -0.819778 -0.0198488
                  CHANNELS 3 Zrotation Xrotation Yrotation
                  End Site
                  {
                    OFFSET 2.33842 -0.294052 0.168128
                  }
                }
              }
              JOINT lPinky1
              {
                OFFSET 8.27202 -0.0477905 -0.4584
                CHANNELS 3 Zrotation Xrotation Yrotation
                JOINT lPinky2
                {
                  OFFSET 1.82734 -0.647385 -0.700984
                  CHANNELS 3 Zrotation Xrotation Yrotation
                  End Site
                  {
                    OFFSET 1.69225 -0.51767 -0.607171
                  }
                }
              }
            }
          }
        }
      }
    }
  }
  JOINT rButtock
  {
    OFFSET -8.77824 4.35084 1.2192
    CHANNELS 3 Zrotation Xrotation Yrotation
    JOINT rThigh
    {
      OFFSET 0 -1.70687 -2.19456
      CHANNELS 3 Zrotation Xrotation Yrotation
      JOINT rShin
      {
        OFFSET 0 -36.8199 0.73152
        CHANNELS 3 Zrotation Xrotation Yrotation
        JOINT rFoot
        {
          OFFSET 0.73152 -45.1104 -5.12064
          CHANNELS 3 Zrotation Xrotation Yrotation
          End Site
          {
            OFFSET -1.1221 -3.69964 12.103
          }
        }
      }
    }
  }
  JOINT lButtock
  {
    OFFSET 8.77824 4.35084 1.2192
    CHANNELS 3 Zrotation Xrotation Yrotation
    JOINT lThigh
    {
      OFFSET 0 -1.70687 -2.19456
      CHANNELS 3 Zrotation Xrotation Yrotation
      JOINT lShin
      {
        OFFSET 0 -36.8199 0.73152
        CHANNELS 3 Zrotation Xrotation Yrotation
        JOINT lFoot
        {
          OFFSET -0.73152 -45.1104 -5.12064
          CHANNELS 3 Zrotation Xrotation Yrotation
          End Site
          {
            OFFSET 1.1221 -3.69964 12.103
          }
        }
      }
    }
  }
}
MOTION
Frames:	6
Frame Time:	0.03333
40.015499999999996 68.4991 3.7859 76.595989 83.605221 76.15896 -5.465775 11.585985 -64.721668 5.814146 -8.359938 65.132996 -0.566397 30.017684 142.372447 -27.162369 33.615461 -158.438664 4.095232 0.860938 23.735349 38.254245 8.312009 23.666729 -17.978896 30.550746 24.828513 117.766319 -24.336617 132.238562 11.978651 1.881305 2.735952 -54.575087 77.236468 51.168544 3.818373 -0.332703 -13.57552 44.830696 -35.190572 -6.899766 -147.480995 2.584289 127.12901 81.964232 -66.82793 36.379043 -166.527062 -57.010315 151.921444 -3.412028 21.286962 7.45873 -170.711515 70.060554 168.337142 -123.607855 39.836719 115.694293 -107.8578 -53.815044 -69.655111 93.455727 36.518505 -90.453452 64.831225 -74.113788 94.233141 -77.854883 54.426071 105.648753 120.123151 -47.84582 -86.43238 169.764357 -19.37313 -148.499004 4.521166 2.179547 2.131212 -24.470513 5.765218 5.98458 140.879976 6.526315 -131.373414 172.296772 45.465897 -108.884906 -8.104075 -59.007312 22.872138 54.062355 39.298309 -59.334247 54.466837 82.484684 -71.358372 33.182732 39.412934 -20.300748 11.408358 -0.952762 -12.418427 157.091521 53.124501 119.120447 -83.706924 58.832683 -46.559528 122.269973 -10.66148 65.094153 19.658226 55.518448 -36.52087 -20.080953 -5.650651 23.473049 -11.138563 16.806524 17.259528 11.973475 -28.712112 -180.0 -22.171134 -53.608606 125.527687 49.310572 17.391434 46.388953
40.8384 67.7229 5.417199999999999 76.344264 83.589041 75.928768 -7.15739 13.030825 -180.0 3.521716 10.743764 179.218675 -1.000544 30.154758 127.183073 -33.642487 25.119545 -143.604033 5.181856 0.444649 9.802333 3.141746 0.220515 8.027873 -23.43627 37.867295 28.014681 35.779125 -54.118127 83.21271 4.064861 -40.552498 7.933965 -9.619797 49.678298 11.633195 -7.728859 16.536949 -13.223561 1.588907 -2.581566 34.495544 -137.871189 -73.474198 171.662887 -172.308928 -62.750911 113.507196 -160.403878 -20.764332 156.515012 -158.86212 -78.280439 167.556109 -166.20538 44.211669 170.932243 24.519541 -50.344941 37.340272 -29.631864 41.805235 19.510179 60.339136 38.106252 24.809999 148.244389 -14.028016 -177.237831 63.502278 10.649541 -25.377403 85.232406 25.136211 113.551116 -167.982968 -71.209407 -145.789761 94.172421 42.760655 -50.31947 23.74821 -23.674371 -43.511977 58.440171 53.563785 -42.150773 -10.31005 -4.467408 -27.638755 20.66183 57.89624 -15.782046 25.82736 12.138998 0.611735 63.306297 83.057689 -69.522056 103.314685 67.724101 -80.545854 160.666398 55.192588 155.985377 166.689313 12.309374 142.721024 5.93605 3.655092 -0.0 -43.785823 -59.871178 -40.080277 -37.675607 68.928782 -113.744249 -160.839899 27.688372 -149.564462 -51.153484 11.500218 -11.598562 59.583398 -0.069598 2.057853 -4.004787 65.028411 130.227344 177.745367 -43.11999 91.195572
42.086400000000005 67.0411 6.7805 73.107932 83.70479 73.222053 -7.028385 19.602252 -0.0 -3.337824 -17.679301 -0.001191 -6.399554 15.607863 34.920532 -14.11891 -22.289134 -64.152337 5.846802 0.126733 2.481295 -37.113215 8.656042 -25.409825 -164.108124 -32.442175 157.669315 -139.993582 17.004193 -139.893126 -178.898336 73.416021 136.070868 147.606628 -41.469499 140.693263 -177.986232 -20.684144 108.368817 -167.052832 -74.212107 161.745929 -26.738599 58.08401 7.994977 99.43727 -50.205907 64.421292 -2.601294 0.627027 -10.609152 -170.442647 -21.426748 128.43155 -141.310353 -56.987129 -146.423965 -13.531733 4.719285 -26.838945 -163.147953 -13.314529 -130.820531 -30.022535 58.262618 27.527018 147.233027 -33.625594 179.049267 -127.034385 -11.483396 -173.249179 -178.086973 17.489545 -45.815051 159.691354 22.670955 -134.066818 -2.36494 -5.17823 4.450403 -172.086007 -78.931867 -78.15334 11.303261 15.079607 1.865113 -161.8202 -53.372066 -64.38618 162.717586 -36.439115 -152.551795 125.90649 -85.849375 172.570292 14.46548 0.748394 8.254896 149.2157 -13.309331 -140.314199 84.930539 -47.059458 73.742741 90.628178 -22.64351 126.144731 -134.725406 62.13808 -33.109864 140.925562 -0.851079 90.338102 63.638381 12.408109 -99.308355 -79.172889 -34.627286 21.469506 -153.695866 64.300289 -28.748611 -167.317559 64.065122 -14.049123 33.834683 51.045809 51.052428 -147.398941 19.086652 24.830882
43.5636 66.4984 8.0334 69.820213 83.840773 71.197616 -4.985125 15.053946 -101.275728 14.728883 -2.440226 104.986484 2.863287 25.312199 104.259748 -33.468819 16.544398 -131.158295 3.89744 0.084619 2.486603 -38.746961 17.883624 -48.213424 -155.559675 -6.47057 157.558376 24.567253 6.055009 -50.620064 -151.181183 0.32242 176.97375 13.416081 -12.159466 14.802198 -169.241344 2.521389 106.646635 -144.92547 19.436584 79.713065 -2.693903 -0.546118 -28.411088 0.86831 11.484823 26.793473 -1.419832 -25.431744 -11.989052 10.248807 1.630578 9.982662 -10.364492 -1.405004 0.072754 -128.547613 -30.187586 -168.530629 -19.874267 2.24735 -6.022961 -69.263677 -44.38798 -80.66385 -0.430176 23.796746 1.172912 93.073143 -22.395958 169.536425 -90.327356 -28.58005 105.444985 58.714136 52.378922 -36.374474 9.427857 14.168252 0.504979 127.663689 -36.821231 -97.759712 19.640221 26.105379 -7.377912 -13.912805 24.342111 -23.496364 -4.255579 1.992361 1.143108 -9.451345 -17.875572 -13.480706 148.994599 -41.167445 155.521613 -24.981695 -4.902109 35.618136 40.491434 -28.455824 34.099942 39.426843 66.278932 -120.332381 135.289974 69.964891 19.044261 178.850236 10.4391 -0.0 47.926533 57.799959 26.172551 -122.602354 45.361195 48.338251 85.963191 53.491449 41.353844 -84.709289 32.482717 78.454312 34.47542 -43.804644 -77.361116 -143.252236 -5.308283 0.281178
45.039699999999996 66.2555 9.199200000000001 68.916283 83.984735 71.734514 -6.092969 11.13624 -123.180259 11.698606 2.295935 129.745335 -3.469254 34.125136 -173.846819 9.651052 44.29997 134.377264 1.026645 0.035199 3.927196 -30.796059 16.700626 -56.111413 7.493877 -44.191147 -6.22162 -114.238173 -3.248959 130.101648 -1.663098 13.812737 -47.088357 139.902435 -45.506604 134.601901 -172.482916 0.283112 105.699924 -118.861683 20.499583 55.475114 -42.843709 -73.334958 -83.444088 7.984395 47.944056 13.628071 -0.261851 -32.63422 -10.413235 -169.023735 -27.270295 135.377426 -6.026675 0.180773 -0.433184 -66.931913 -78.098725 -95.863981 -23.8867 -15.172857 -15.735338 -75.834336 -51.371329 -76.32106 -2.95018 -17.992552 5.864155 -130.607794 45.62389 77.11681 147.467248 15.536114 -31.738984 166.87868 -7.424376 -144.037233 73.242947 44.741789 -44.301034 -28.094931 -32.904243 -31.079269 -173.125519 -71.534766 -119.438326 69.198658 -83.638415 114.36418 -1.917941 11.943843 -4.794218 0.110608 0.734572 -7.207689 18.678713 43.477242 -13.430765 6.135928 4.518476 -22.685723 20.124767 -6.531862 22.317142 121.503642 -12.023286 -175.592357 -105.737027 47.475738 -47.701036 119.374404 -10.924846 80.073406 77.803072 27.575512 126.415612 -9.301988 22.193254 157.613133 92.615548 54.799932 40.008435 -88.413159 36.184066 85.758746 42.291148 -38.914268 126.572188 94.632785 -19.187104 162.382791
46.4317 66.22879999999999 10.2903 71.484931 84.202944 75.775719 -8.85889 11.435049 1.405371 -2.218346 -12.30484 8.108598 -11.324404 27.764447 -97.865628 38.430415 10.088253 56.701174 -1.518212 -0.071087 5.361294 -23.470985 12.096044 -54.04591 -153.18251 -3.024214 162.896512 55.791669 29.746979 -56.189342 -145.071435 2.548263 159.271549 29.350547 -38.484157 28.689082 -8.834755 2.787878 -15.824864 16.057836 -14.125063 -1.146705 -154.326172 -35.962016 156.575861 -97.556295 -82.444268 -163.632242 -165.383108 -5.135703 148.868956 -165.184222 -34.531615 153.10665 -2.541375 -0.80093 -3.32556 6.20308 43.40489 2.968629 -163.79504 31.277884 -137.227313 -136.549549 -12.453023 -133.57951 151.011473 13.810803 -155.166728 -85.3444 -25.413836 -114.003221 -168.400669 35.71446 -50.027185 145.390532 34.155753 -124.558507 5.318216 18.530805 3.301782 35.61451 13.756402 -46.43567 137.367834 17.175695 -115.709506 1.350553 -26.306427 -5.079307 -24.115292 -38.494561 -2.594942 162.244363 -4.98724 -143.315634 158.555229 0.309364 178.686172 84.200666 -60.549349 96.08664 -17.902613 39.364235 15.977826 20.645654 -12.38269 -43.498475 -43.815157 5.79255 -19.857809 36.994893 -59.299177 41.225528 73.217321 46.999992 77.578596 121.242113 43.974805 171.954478 -0.659231 6.7499 5.591204 7.835357 -6.874841 1.099204 22.437576 51.916404 108.538316 -169.393475 -20.560979 94.84479
